<svg width="42" height="38" viewBox="0 0 42 38" fill="none" xmlns="http://www.w3.org/2000/svg">
<g clip-path="url(#clip0_2_238)">
<path d="M0.585872 27.2035C0.135735 25.5533 0.858052 24.2828 1.67545 23.1988C2.83248 21.7059 4.1619 20.3208 5.5864 19.1221C12.2932 13.772 20.041 11.7678 28.5142 12.6442C30.6676 12.8747 32.8237 13.4172 35.2129 13.8797C34.7424 11.6523 32.9513 9.98288 32.3401 7.70995C33.3541 7.77893 33.8117 8.44588 34.206 8.98856C35.8146 11.2214 37.4081 13.5011 38.9395 15.8127C39.6659 16.9298 39.562 17.5705 38.4441 18.1423C36.1312 19.3646 33.671 19.761 31.1259 19.3C31.0321 19.2696 30.937 19.0832 30.7634 18.8194C31.933 16.9676 34.3604 18.2724 35.8609 16.8389C32.8682 15.0398 29.5905 14.6008 26.3153 14.474C22.8843 14.3486 19.5027 14.5504 16.2213 15.5628C13.0021 16.5435 10.1466 18.1607 7.35589 20.0582C4.53344 21.8936 2.35493 24.3007 0.585872 27.2035Z" fill="black"/>
</g>
<defs>
<clipPath id="clip0_2_238">
<rect width="28.3944" height="34.4457" fill="white" transform="translate(-0.000976562 27.0134) rotate(-72.0565)"/>
</clipPath>
</defs>
</svg>
