<svg width="44" height="44" viewBox="0 0 44 44" fill="none" xmlns="http://www.w3.org/2000/svg">
<g clip-path="url(#clip0_128_97)">
<rect width="44" height="44" rx="22" fill="#E74E89"/>
<path d="M42 22C42.0034 24.6343 41.4847 27.2432 40.4739 29.6759C39.4631 32.1085 37.9803 34.3168 36.111 36.173C34.2571 38.0237 32.0566 39.4909 29.6354 40.4907C27.2141 41.4905 24.6196 42.0034 22 42C10.954 42 2.00002 33.046 2.00002 22C1.99303 16.8718 3.96289 11.9382 7.50002 8.22502C9.36636 6.25562 11.6149 4.68776 14.1081 3.6174C16.6014 2.54704 19.2868 1.99668 22 2.00002C24.6196 1.99662 27.2141 2.5095 29.6354 3.50933C32.0566 4.50916 34.2571 5.97634 36.111 7.82702C37.9803 9.68324 39.4631 11.8915 40.4739 14.3242C41.4847 16.7568 42.0034 19.3657 42 22Z" stroke="#A71F54" stroke-width="4" stroke-linecap="round" stroke-linejoin="round"/>
<path d="M42 22C39.082 22 31.032 20.9 23.827 24.063C16 27.5 10.333 32.831 7.86304 36.147" stroke="#A71F54" stroke-width="4" stroke-linecap="round" stroke-linejoin="round"/>
<path d="M14.5 3.4541C17.63 6.3431 24.46 13.6981 27 21.0001C29.54 28.3021 30.48 37.2801 31.06 39.8351" stroke="#A71F54" stroke-width="4" stroke-linecap="round" stroke-linejoin="round"/>
<path d="M2.15405 19.5C5.93205 19.728 15.9331 19.933 22.3331 17.2C28.7331 14.467 34.2401 9.43997 36.1291 7.84497M3.50005 29.613C5.26237 33.8789 8.44076 37.4072 12.5001 39.604" stroke="#A71F54" stroke-width="4" stroke-linecap="round" stroke-linejoin="round"/>
<path d="M2.00002 22C1.99303 16.8718 3.96289 11.9382 7.50002 8.22502C9.36636 6.25561 11.6149 4.68776 14.1081 3.6174C16.6014 2.54704 19.2868 1.99668 22 2.00002M30 3.66402C32.2776 4.66055 34.3499 6.07225 36.111 7.82701C37.9803 9.68324 39.4631 11.8915 40.4739 14.3242C41.4847 16.7568 42.0034 19.3657 42 22C42 24.462 41.555 26.821 40.74 29M22 42C24.6196 42.0034 27.2141 41.4905 29.6354 40.4907C32.0566 39.4909 34.2571 38.0237 36.111 36.173" stroke="#A71F54" stroke-width="4" stroke-linecap="round" stroke-linejoin="round"/>
</g>
<defs>
<clipPath id="clip0_128_97">
<rect width="44" height="44" rx="22" fill="white"/>
</clipPath>
</defs>
</svg>
