<svg width="36" height="36" viewBox="0 0 36 36" fill="none" xmlns="http://www.w3.org/2000/svg">
<path d="M22.7527 6.5C26.2959 7.83097 27.7476 9.00916 28.6902 12.4375M8.69014 10.5C7.28954 13.4688 7.05445 15.194 8.69014 18.5M26.1902 4.5C28.5822 5.54869 29.6903 6.5 30.6903 8.5M4.69012 12.5C3.80486 14.282 3.73574 16.2184 4.69004 18M19.4821 25.0551L22.3404 31.1245C22.5702 31.6126 23.1458 31.8304 23.6412 31.6167L25.9384 30.6256C26.458 30.4014 26.6883 29.7911 26.4462 29.2796L23.6309 23.3313C23.3169 22.6678 23.8008 21.9035 24.5348 21.9035H28.7668C29.659 21.9035 30.1045 20.8237 29.472 20.1945L14.8954 5.69606C14.2646 5.0687 13.1902 5.51546 13.1902 6.40507V27.2206C13.1902 28.1258 14.2971 28.5652 14.918 27.9064L17.8496 24.7953C18.3331 24.2822 19.1816 24.4172 19.4821 25.0551Z" stroke="url(#paint0_linear_129_98)" stroke-width="2" stroke-linecap="round" stroke-linejoin="round"/>
<defs>
<linearGradient id="paint0_linear_129_98" x1="29.6139" y1="1.97101" x2="4.6903" y2="33.1172" gradientUnits="userSpaceOnUse">
<stop stop-color="#97DA3F"/>
<stop offset="1" stop-color="#A8FF35"/>
</linearGradient>
</defs>
</svg>
