<svg width="27" height="27" viewBox="0 0 27 27" fill="none" xmlns="http://www.w3.org/2000/svg">
<g clip-path="url(#clip0_128_73)">
<rect width="26.67" height="26.67" rx="13.335" fill="white"/>
<path d="M13.3333 26.6667C20.6973 26.6667 26.6667 20.6973 26.6667 13.3333C26.6667 5.96933 20.6973 0 13.3333 0C5.96933 0 0 5.96933 0 13.3333C0 18.6747 3.14133 23.2827 7.67733 25.4107L10.7307 11.056C10.8089 10.7149 11.0181 10.4182 11.3131 10.23C11.6081 10.0418 11.9653 9.97707 12.3076 10.0499C12.6499 10.1227 12.9499 10.3271 13.1428 10.6191C13.3357 10.9111 13.406 11.2673 13.3387 11.6107C12.9733 13.3333 12.6533 14 12.668 14.8C12.6907 16.0533 13.032 16.7227 13.3627 17.0693C13.7 17.4227 14.1867 17.6133 14.8227 17.6027C15.472 17.5893 16.2067 17.3613 16.8573 16.9507C18.1213 16.156 18.6667 14.7933 18.6667 13.3333C18.6658 12.541 18.4884 11.7589 18.1473 11.0437C17.8063 10.3285 17.3102 9.69832 16.6951 9.19889C16.08 8.69947 15.3614 8.34336 14.5914 8.15646C13.8215 7.96955 13.0196 7.95655 12.2439 8.11839C11.4683 8.28023 10.7385 8.61284 10.1076 9.09206C9.4766 9.57128 8.96034 10.1851 8.59629 10.8888C8.23225 11.5925 8.02958 12.3685 8.003 13.1604C7.97643 13.9523 8.12662 14.7401 8.44267 15.4667C8.57152 15.7883 8.57007 16.1476 8.43864 16.4682C8.3072 16.7888 8.05609 17.0457 7.73852 17.1844C7.42095 17.323 7.06187 17.3326 6.73735 17.2111C6.41283 17.0896 6.14837 16.8465 6 16.5333C5.46923 15.3159 5.24989 13.9855 5.36177 12.6621C5.47366 11.3388 5.91325 10.0641 6.64088 8.95306C7.36852 7.84204 8.3613 6.92965 9.52968 6.2982C10.698 5.66675 12.0052 5.33611 13.3333 5.33611C14.6614 5.33611 15.9686 5.66675 17.137 6.2982C18.3054 6.92965 19.2981 7.84204 20.0258 8.95306C20.7534 10.0641 21.193 11.3388 21.3049 12.6621C21.4168 13.9855 21.1974 15.3159 20.6667 16.5333C20.176 17.664 19.28 18.5787 18.2773 19.2093C17.2707 19.8427 16.068 20.248 14.8707 20.2693C13.7787 20.2893 12.6413 19.9867 11.7253 19.192L10.2133 26.3013C11.2133 26.5413 12.2587 26.668 13.332 26.668L13.3333 26.6667Z" fill="#CA2127"/>
</g>
<defs>
<clipPath id="clip0_128_73">
<rect width="26.67" height="26.67" rx="13.335" fill="white"/>
</clipPath>
</defs>
</svg>
