<svg width="32" height="32" viewBox="0 0 32 32" fill="none" xmlns="http://www.w3.org/2000/svg">
<path d="M29.3333 7.73337C28.3311 8.16816 27.2712 8.45559 26.1866 8.5867C27.3309 7.90313 28.1883 6.82775 28.6 5.56004C27.5247 6.20012 26.3476 6.6511 25.12 6.89337C24.2994 6.00346 23.2066 5.4111 22.013 5.20917C20.8195 5.00724 19.5927 5.20718 18.525 5.77762C17.4573 6.34806 16.6092 7.25674 16.1136 8.36115C15.618 9.46556 15.503 10.7032 15.7866 11.88C13.6125 11.7701 11.4859 11.204 9.54483 10.2185C7.60378 9.23306 5.89175 7.85029 4.51996 6.16004C4.03881 7.00026 3.78598 7.9518 3.78663 8.92004C3.78492 9.81921 4.00558 10.7049 4.42897 11.4981C4.85235 12.2914 5.46532 12.9676 6.21329 13.4667C5.34393 13.443 4.49314 13.2098 3.73329 12.7867V12.8534C3.73981 14.1132 4.18128 15.3322 4.98305 16.304C5.78481 17.2758 6.89763 17.9409 8.13329 18.1867C7.65763 18.3315 7.16379 18.4078 6.66663 18.4134C6.32248 18.4093 5.97919 18.3781 5.63996 18.32C5.99184 19.4038 6.67279 20.3509 7.58806 21.0296C8.50333 21.7083 9.60739 22.0848 10.7466 22.1067C8.8229 23.6204 6.4478 24.4465 3.99996 24.4534C3.55427 24.4548 3.10894 24.4281 2.66663 24.3734C5.16586 25.987 8.07838 26.8437 11.0533 26.84C13.1062 26.8614 15.1428 26.4734 17.0441 25.6988C18.9454 24.9242 20.6733 23.7785 22.1269 22.3287C23.5805 20.8788 24.7306 19.1539 25.51 17.2546C26.2895 15.3553 26.6827 13.3197 26.6666 11.2667V10.56C27.7129 9.77978 28.6153 8.82327 29.3333 7.73337Z" fill="#1DA1F2"/>
</svg>
